<?xml version="1.0" encoding="utf-8"?>
<!-- Generator: Adobe Illustrator 25.1.0, SVG Export Plug-In . SVG Version: 6.00 Build 0)  -->
<svg version="1.1" id="Ebene_34" xmlns="http://www.w3.org/2000/svg" xmlns:xlink="http://www.w3.org/1999/xlink" x="0px" y="0px"
	 viewBox="0 0 500 500" style="enable-background:new 0 0 500 500;" xml:space="preserve">
<g>
	<path d="M191.7,222.3c0,16.6-7,23.4-14.4,28.4v0.7c7.6,4.3,15.7,14.8,15.7,28.1c0,26.6-19.6,37.3-37.6,37.3
		c-17.6,0-37.4-10.6-37.4-37.3c0-13.3,8.1-23.8,15.7-28.1v-0.7c-7.4-5-14.4-11.9-14.4-28.4c0-20,18.5-32,36.2-32
		C173.2,190.2,191.7,202.3,191.7,222.3z M144.5,276.6c0,8.3,4.7,13.3,11,13.3c6.5,0,11-5,11-13.3c0-7.6-4.9-13-11-13
		S144.5,269.1,144.5,276.6z M165.4,227.3c0-7.6-4-12.1-9.9-12.1c-5.9,0-9.9,4.5-9.9,12.1c0,6.8,4.3,11.7,9.9,11.7
		C161.1,239,165.4,234.2,165.4,227.3z"/>
	<path d="M204.1,229.7c0-27.7,17.5-39.4,36.7-39.4s36.7,11.7,36.7,39.2v48.1c0,28.3-17.5,39.2-36.7,39.2s-36.7-10.4-36.7-39.1V229.7
		z M248.9,230.9c0-7-2.9-10.6-8.1-10.6c-5.2,0-8.1,3.6-8.1,10.6v45.7c0,6.8,2.9,10.3,8.1,10.3c5.2,0,8.1-3.4,8.1-10.3V230.9z"/>
	<path d="M362.5,222.3c0,16.6-7,23.4-14.4,28.4v0.7c7.6,4.3,15.7,14.8,15.7,28.1c0,26.6-19.6,37.3-37.6,37.3
		c-17.6,0-37.4-10.6-37.4-37.3c0-13.3,8.1-23.8,15.7-28.1v-0.7c-7.4-5-14.4-11.9-14.4-28.4c0-20,18.5-32,36.2-32
		C344,190.2,362.5,202.3,362.5,222.3z M315.4,276.6c0,8.3,4.7,13.3,11,13.3c6.5,0,11-5,11-13.3c0-7.6-4.9-13-11-13
		S315.4,269.1,315.4,276.6z M336.2,227.3c0-7.6-4-12.1-9.9-12.1s-9.9,4.5-9.9,12.1c0,6.8,4.3,11.7,9.9,11.7S336.2,234.2,336.2,227.3
		z"/>
</g>
</svg>
