<?xml version="1.0" encoding="utf-8"?>
<!-- Generator: Adobe Illustrator 25.1.0, SVG Export Plug-In . SVG Version: 6.00 Build 0)  -->
<svg version="1.1" id="Ebene_34" xmlns="http://www.w3.org/2000/svg" xmlns:xlink="http://www.w3.org/1999/xlink" x="0px" y="0px"
	 viewBox="0 0 500 500" style="enable-background:new 0 0 500 500;" xml:space="preserve">
<g>
	<path d="M66.9,281.9v-53h15.4c12.3,0,16.2,7.1,16.2,14c0,6-3.7,9.9-7,11.8v0.3c3.7,1,7.6,4.3,7.6,11.9v15H86.3v-14.6
		c0-3.5-1.1-5.3-4.3-5.3h-2.2v19.9H66.9z M79.7,250.5h1.8c3.2,0,4.5-2.2,4.5-5.4s-1.4-4.8-4.2-4.8h-2.1V250.5z"/>
	<path d="M104.4,228.9h12.8v36.5c0,3.8,1.5,5,3.8,5c2.2,0,3.8-1.3,3.8-5v-36.5h12.8v36.3c0,14.1-7.5,18.3-16.6,18.3
		c-9,0-16.6-4.2-16.6-18.3V228.9z"/>
	<path d="M152.8,258.9c-7.6-5.6-9.5-10.6-9.5-17c0-9,7.8-14.6,16-14.6c7.9,0,15.9,4.3,15.5,18.8h-11.4c0.2-4.8-1-7.4-3.9-7.4
		c-2.6,0-3.7,1.4-3.7,3.4c0,1.4,0.6,3.3,3.2,5.3l7,5.3c7.5,5.7,9,10.4,9,15.5c0,9.5-7.4,15.4-16.1,15.4c-8.5,0-16.3-4.5-15.9-18.7
		h11.4c-0.2,5,1.2,7.1,4.1,7.1c2.5,0,3.4-1.4,3.4-3.4c0-1.2-0.2-3-3.2-5.3L152.8,258.9z"/>
	<path d="M177.8,228.9H209v12.4h-9v40.6h-12.8v-40.6h-9.4V228.9z"/>
	<path d="M238.2,258.9c-7.6-5.6-9.5-10.6-9.5-17c0-9,7.8-14.6,16-14.6c7.9,0,15.9,4.3,15.5,18.8h-11.4c0.2-4.8-1-7.4-3.9-7.4
		c-2.6,0-3.7,1.4-3.7,3.4c0,1.4,0.6,3.3,3.2,5.3l7,5.3c7.5,5.7,9,10.4,9,15.5c0,9.5-7.4,15.4-16.1,15.4c-8.5,0-16.3-4.5-15.9-18.7
		h11.4c-0.2,5,1.2,7.1,4.1,7.1c2.5,0,3.4-1.4,3.4-3.4c0-1.2-0.2-3-3.2-5.3L238.2,258.9z"/>
	<path d="M287.1,261.8v20.2h-12.8v-20.2l-12.6-32.9h13.4l5.7,17.8h0.5l5.7-17.8h13L287.1,261.8z"/>
	<path d="M304.1,228.9h12.2c12.9,0,19.6,4.1,19.6,19.4v14.2c0,15.4-6.7,19.4-19.6,19.4h-12.2V228.9z M323,246.7
		c0-3.7-1.4-4.9-4.3-4.9h-1.8v27.3h1.8c3,0,4.3-1.3,4.3-4.9V246.7z"/>
	<path d="M355.1,254.6h-0.5v27.4h-11.9v-53h13.5l9.5,24.7h0.5v-24.7H378v53h-13L355.1,254.6z"/>
	<path d="M386,228.9h26.8v12.7h-14v6.7h13.4v12h-13.4v8.8h14.3v12.8H386V228.9z"/>
	<path d="M441.5,261.8v20.2h-12.8v-20.2l-12.6-32.9h13.4l5.7,17.8h0.5l5.7-17.8h13L441.5,261.8z"/>
</g>
</svg>
